<?xml version="1.0" standalone="no"?>
<!DOCTYPE svg PUBLIC "-//W3C//DTD SVG 20010904//EN"
 "http://www.w3.org/TR/2001/REC-SVG-20010904/DTD/svg10.dtd">
<svg version="1.0" xmlns="http://www.w3.org/2000/svg"
 width="300.000000pt" height="34.000000pt" viewBox="0 0 300.000000 34.000000"
 preserveAspectRatio="xMidYMid meet">
<metadata>
Created by potrace 1.16, written by Peter Selinger 2001-2019
</metadata>
<g transform="translate(0.000000,34.000000) scale(0.100000,-0.100000)"
fill="#000000" stroke="none">
<path d="M0 165 l0 -155 990 0 990 0 0 75 0 75 -840 0 -840 0 0 80 0 80 -150
0 -150 0 0 -155z"/>
<path d="M668 303 c-9 -10 -18 -25 -21 -33 -3 -8 -6 -3 -6 13 -1 22 -6 27 -25
27 -22 0 -26 -6 -31 -47 -10 -71 -15 -76 -12 -11 l4 57 -39 -1 -38 0 0 -68 0
-67 54 -2 c44 -1 55 2 59 17 4 15 5 15 6 0 1 -14 14 -17 97 -16 l96 1 -6 51
c-3 28 -6 59 -6 69 0 14 -6 18 -27 15 -25 -3 -29 -8 -34 -53 l-6 -50 -1 47
c-2 35 -7 50 -21 58 -25 13 -25 13 -43 -7z"/>
<path d="M1177 302 c-10 -10 -17 -25 -17 -32 0 -7 7 -22 17 -32 15 -17 15 -18
-1 -18 -22 0 -18 -29 6 -44 13 -8 23 -8 37 1 12 8 22 8 29 1 5 -5 20 -8 33 -6
22 3 24 8 27 71 2 54 0 67 -12 67 -11 0 -16 -15 -19 -57 l-3 -58 -2 58 c-2 42
-6 57 -16 57 -10 0 -16 -13 -18 -38 -3 -38 -3 -39 -23 -20 -16 16 -17 18 -2
13 12 -5 17 -2 17 12 0 18 -17 43 -30 43 -4 0 -14 -8 -23 -18z"/>
<path d="M1380 313 c-8 -3 -18 -11 -22 -17 -5 -8 -8 -7 -8 2 0 6 -7 12 -15 12
-12 0 -15 -14 -15 -70 0 -54 3 -70 14 -70 8 0 17 8 19 18 4 14 5 15 6 1 1 -15
16 -17 119 -15 l117 1 3 28 c2 16 -2 35 -9 43 -8 10 -8 14 0 14 6 0 11 9 11
20 0 23 -30 42 -49 31 -7 -5 -30 -5 -52 -1 -24 5 -39 3 -39 -3 0 -5 -7 -4 -15
3 -13 10 -19 9 -36 -6 -17 -16 -19 -16 -13 -1 7 18 7 18 -16 10z"/>
<path d="M2379 306 c-114 -35 -150 -159 -71 -244 34 -36 90 -54 133 -42 38 11
79 37 79 50 0 16 -26 11 -43 -8 -37 -41 -143 -18 -171 37 -38 73 -4 159 70
180 39 11 95 -1 114 -24 16 -19 30 -19 30 -1 0 16 -41 45 -79 56 -14 4 -42 2
-62 -4z"/>
<path d="M830 240 c0 -70 0 -70 28 -70 15 0 33 5 40 12 9 9 12 9 12 0 0 -19
28 -14 33 6 4 16 5 16 6 0 1 -14 10 -18 35 -18 30 0 35 4 39 28 l4 27 2 -27
c1 -31 31 -40 31 -10 1 16 1 16 11 0 12 -21 40 -23 57 -6 7 7 12 38 12 70 l0
57 -75 0 -75 0 -1 -47 c-1 -26 -3 -36 -6 -22 -10 64 -13 70 -38 70 -21 0 -25
-5 -25 -29 0 -17 -4 -32 -9 -35 -4 -3 -6 6 -3 20 6 30 -10 44 -50 44 -28 0
-28 0 -28 -70z"/>
<path d="M1636 293 c-2 -10 -8 -42 -11 -70 -6 -49 -5 -53 13 -53 11 0 23 8 25
18 4 16 5 16 6 0 1 -15 11 -18 70 -17 56 1 71 5 74 18 4 14 5 14 6 -1 1 -14
10 -18 44 -18 24 0 48 5 55 12 9 9 12 9 12 0 0 -7 9 -12 20 -12 18 0 20 7 20
70 0 63 -2 70 -20 70 -11 0 -20 -5 -20 -12 0 -9 -3 -9 -12 0 -7 7 -25 12 -41
12 l-28 0 5 -57 5 -58 -11 58 c-9 50 -13 57 -34 57 -18 0 -24 -6 -25 -22 0
-13 -5 -32 -10 -43 -8 -16 -8 -15 -4 8 7 36 -9 57 -46 57 -26 0 -28 -3 -32
-42 l-4 -43 -1 43 c-2 37 -5 42 -26 42 -15 0 -27 -7 -30 -17z"/>
<path d="M2053 283 c-23 -15 -41 -29 -41 -32 1 -3 -4 -19 -11 -36 -38 -91 35
-195 138 -195 48 0 111 32 111 56 0 19 -5 18 -48 -11 -54 -37 -103 -34 -150 9
-33 31 -37 39 -37 85 0 45 4 55 36 87 31 31 42 36 82 36 32 0 56 -7 77 -22 34
-24 51 -20 29 6 -40 48 -126 56 -186 17z"/>
<path d="M2647 251 c-32 -47 -43 -51 -59 -16 -6 14 -15 25 -20 25 -15 0 -8
-37 12 -63 11 -14 20 -30 20 -37 0 -7 -8 -9 -20 -5 -16 5 -20 2 -20 -14 0 -20
5 -21 69 -20 38 1 75 -2 81 -6 8 -5 11 -4 7 3 -4 5 -3 21 2 34 l9 23 11 -27
c8 -22 17 -28 40 -28 16 0 31 6 35 15 3 8 15 15 27 15 15 0 19 -4 15 -16 -5
-12 1 -15 32 -12 34 3 37 5 34 31 -4 36 6 35 19 -3 12 -33 33 -40 43 -13 4 9
9 41 12 70 4 48 3 54 -13 51 -11 -2 -20 -15 -23 -33 l-6 -30 -11 33 c-21 56
-46 33 -53 -48 -1 -17 -5 -10 -13 24 -7 27 -17 51 -24 53 -7 3 -23 -18 -37
-46 -31 -61 -42 -68 -50 -35 -5 20 -1 32 21 52 25 23 26 27 10 30 -10 2 -26
-3 -36 -12 -22 -20 -31 -20 -31 -1 0 8 -7 15 -15 15 -22 0 -30 -24 -34 -99 -1
-19 -4 -21 -15 -12 -7 6 -21 9 -30 5 -24 -9 -20 9 14 67 38 63 35 87 -3 30z"/>
</g>
</svg>
